<svg xmlns="http://www.w3.org/2000/svg" xmlns:xlink="http://www.w3.org/1999/xlink" width="500" zoomAndPan="magnify" viewBox="0 0 375 374.999991" height="500" preserveAspectRatio="xMidYMid meet" version="1.2"><defs><clipPath id="3ba0905db6"><path d="M 129.546875 95.617188 L 245.796875 95.617188 L 245.796875 245.617188 L 129.546875 245.617188 Z M 129.546875 95.617188 "/></clipPath></defs><g id="d246573139"><path style=" stroke:none;fill-rule:nonzero;fill:#ffffff;fill-opacity:1;" d="M 170.355469 239.273438 L 170.355469 224.582031 L 163.824219 224.582031 L 163.824219 211.523438 L 157.296875 211.523438 L 157.296875 198.460938 L 150.765625 198.460938 L 150.765625 183.769531 L 142.605469 183.769531 L 142.605469 177.242188 L 136.074219 177.242188 L 136.074219 164.183594 L 150.765625 164.183594 L 150.765625 170.710938 L 157.296875 170.710938 L 157.296875 190.300781 L 163.824219 190.300781 L 163.824219 102.152344 L 176.886719 102.152344 L 176.886719 164.183594 L 183.414062 164.183594 L 183.414062 136.429688 L 198.105469 136.429688 L 198.105469 164.183594 L 204.636719 164.183594 L 204.636719 142.960938 L 217.695312 142.960938 L 217.695312 170.710938 L 224.226562 170.710938 L 224.226562 149.492188 L 232.386719 149.492188 L 232.386719 157.652344 L 238.917969 157.652344 L 238.917969 204.992188 L 232.386719 204.992188 L 232.386719 224.582031 L 224.226562 224.582031 L 224.226562 239.273438 Z M 170.355469 239.273438 "/><g clip-rule="nonzero" clip-path="url(#3ba0905db6)"><path style=" stroke:none;fill-rule:nonzero;fill:#1f2731;fill-opacity:1;" d="M 163.824219 245.800781 L 163.824219 224.582031 L 157.296875 224.582031 L 157.296875 211.523438 L 150.765625 211.523438 L 150.765625 198.460938 L 142.605469 198.460938 L 142.605469 183.769531 L 136.074219 183.769531 L 136.074219 177.242188 L 129.546875 177.242188 L 129.546875 157.652344 L 150.765625 157.652344 L 150.765625 164.183594 L 157.296875 164.183594 L 157.296875 102.152344 L 163.824219 102.152344 L 163.824219 95.621094 L 176.886719 95.621094 L 176.886719 102.152344 L 183.414062 102.152344 L 183.414062 129.902344 L 198.105469 129.902344 L 198.105469 136.429688 L 217.695312 136.429688 L 217.695312 142.960938 L 232.386719 142.960938 L 232.386719 149.492188 L 238.917969 149.492188 L 238.917969 157.652344 L 245.445312 157.652344 L 245.445312 204.992188 L 238.917969 204.992188 L 238.917969 224.582031 L 232.386719 224.582031 L 232.386719 245.800781 Z M 224.226562 239.273438 L 224.226562 224.582031 L 232.386719 224.582031 L 232.386719 204.992188 L 238.917969 204.992188 L 238.917969 157.652344 L 232.386719 157.652344 L 232.386719 149.492188 L 224.226562 149.492188 L 224.226562 170.710938 L 217.695312 170.710938 L 217.695312 142.960938 L 204.636719 142.960938 L 204.636719 164.183594 L 198.105469 164.183594 L 198.105469 136.429688 L 183.414062 136.429688 L 183.414062 164.183594 L 176.886719 164.183594 L 176.886719 102.152344 L 163.824219 102.152344 L 163.824219 190.300781 L 157.296875 190.300781 L 157.296875 170.710938 L 150.765625 170.710938 L 150.765625 164.183594 L 136.074219 164.183594 L 136.074219 177.242188 L 142.605469 177.242188 L 142.605469 183.769531 L 150.765625 183.769531 L 150.765625 198.460938 L 157.296875 198.460938 L 157.296875 211.523438 L 163.824219 211.523438 L 163.824219 224.582031 L 170.355469 224.582031 L 170.355469 239.273438 Z M 224.226562 239.273438 "/></g></g></svg>